0
SECTION
2
ENTITIES
0
LWPOLYLINE
8
Edge.Cuts
90
180
70
1
10
22.669
20
-34.500
10
22.669
20
-35.292
10
22.670
20
-36.085
10
22.672
20
-36.883
10
22.674
20
-37.687
10
22.676
20
-38.498
10
22.680
20
-39.321
10
22.684
20
-40.156
10
22.688
20
-41.006
10
22.693
20
-41.873
10
22.699
20
-42.762
10
22.705
20
-43.673
10
22.712
20
-44.612
10
22.719
20
-45.581
10
22.727
20
-46.584
10
22.736
20
-47.627
10
22.745
20
-48.712
10
22.754
20
-49.848
10
22.762
20
-51.038
10
22.767
20
-52.287
10
22.763
20
-53.601
10
22.743
20
-54.977
10
22.683
20
-56.404
10
22.537
20
-57.838
10
22.193
20
-59.147
10
21.160
20
-59.500
10
19.693
20
-59.500
10
18.306
20
-59.500
10
16.988
20
-59.500
10
15.732
20
-59.500
10
14.530
20
-59.500
10
13.377
20
-59.500
10
12.267
20
-59.500
10
11.194
20
-59.500
10
10.156
20
-59.500
10
9.147
20
-59.500
10
8.163
20
-59.500
10
7.203
20
-59.500
10
6.262
20
-59.500
10
5.337
20
-59.500
10
4.427
20
-59.500
10
3.528
20
-59.500
10
2.638
20
-59.500
10
1.748
20
-59.500
10
0.873
20
-59.500
10
0.000
20
-59.500
10
-0.873
20
-59.500
10
-1.748
20
-59.500
10
-2.628
20
-59.500
10
-3.514
20
-59.500
10
-4.410
20
-59.500
10
-5.316
20
-59.500
10
-6.237
20
-59.500
10
-7.174
20
-59.500
10
-8.131
20
-59.500
10
-9.110
20
-59.500
10
-10.156
20
-59.500
10
-11.194
20
-59.500
10
-12.267
20
-59.500
10
-13.377
20
-59.500
10
-14.530
20
-59.500
10
-15.732
20
-59.500
10
-16.988
20
-59.500
10
-18.306
20
-59.500
10
-19.693
20
-59.500
10
-21.160
20
-59.500
10
-22.193
20
-59.147
10
-22.537
20
-57.838
10
-22.683
20
-56.404
10
-22.743
20
-54.977
10
-22.763
20
-53.601
10
-22.767
20
-52.287
10
-22.762
20
-51.038
10
-22.754
20
-49.848
10
-22.745
20
-48.712
10
-22.736
20
-47.627
10
-22.727
20
-46.584
10
-22.719
20
-45.581
10
-22.712
20
-44.612
10
-22.705
20
-43.674
10
-22.699
20
-42.762
10
-22.693
20
-41.873
10
-22.688
20
-41.006
10
-22.684
20
-40.156
10
-22.680
20
-39.321
10
-22.676
20
-38.498
10
-22.674
20
-37.687
10
-22.672
20
-36.883
10
-22.670
20
-36.085
10
-22.669
20
-35.292
10
-22.669
20
-34.500
10
-22.669
20
-33.708
10
-22.670
20
-32.915
10
-22.672
20
-32.117
10
-22.674
20
-31.313
10
-22.676
20
-30.502
10
-22.680
20
-29.679
10
-22.684
20
-28.844
10
-22.688
20
-27.994
10
-22.693
20
-27.127
10
-22.699
20
-26.238
10
-22.705
20
-25.327
10
-22.712
20
-24.388
10
-22.719
20
-23.419
10
-22.727
20
-22.416
10
-22.736
20
-21.373
10
-22.745
20
-20.287
10
-22.754
20
-19.152
10
-22.764
20
-17.961
10
-22.775
20
-16.706
10
-22.786
20
-15.380
10
-22.797
20
-13.973
10
-22.809
20
-12.473
10
-22.821
20
-10.868
10
-22.834
20
-9.500
10
-22.847
20
-9.500
10
-22.859
20
-9.500
10
-22.727
20
-9.500
10
-21.708
20
-9.500
10
-20.106
20
-9.500
10
-18.572
20
-9.500
10
-17.099
20
-9.500
10
-15.681
20
-9.500
10
-14.311
20
-9.500
10
-12.984
20
-9.500
10
9.452
20
-59.500
10
8.440
20
-59.500
10
7.450
20
-59.500
10
6.479
20
-59.500
10
5.524
20
-59.500
10
4.583
20
-59.500
10
3.653
20
-59.500
10
2.732
20
-59.500
10
1.818
20
-59.500
10
0.908
20
-59.500
10
0.000
20
-59.500
10
-0.908
20
-59.500
10
-1.818
20
-59.500
10
-2.732
20
-59.500
10
-3.653
20
-59.500
10
-4.583
20
-59.500
10
-5.524
20
-59.500
10
-6.479
20
-59.500
10
-7.450
20
-59.500
10
-8.440
20
-59.500
10
-9.452
20
-59.500
10
12.984
20
-9.500
10
14.311
20
-9.500
10
15.681
20
-9.500
10
17.099
20
-9.500
10
18.572
20
-9.500
10
20.106
20
-9.500
10
21.709
20
-9.500
10
22.727
20
-9.500
10
22.859
20
-9.500
10
22.847
20
-9.500
10
22.834
20
-9.500
10
22.821
20
-10.868
10
22.809
20
-12.473
10
22.797
20
-13.973
10
22.786
20
-15.380
10
22.775
20
-16.706
10
22.764
20
-17.961
10
22.754
20
-19.152
10
22.745
20
-20.287
10
22.736
20
-21.373
10
22.727
20
-22.416
10
22.719
20
-23.419
10
22.712
20
-24.388
10
22.705
20
-25.327
10
22.699
20
-26.238
10
22.693
20
-27.127
10
22.688
20
-27.994
10
22.684
20
-28.844
10
22.680
20
-29.679
10
22.676
20
-30.502
10
22.674
20
-31.313
10
22.672
20
-32.117
10
22.670
20
-32.915
10
22.669
20
-33.708
0
CIRCLE
8
Edge.Cuts
10
-18.500
20
-12.000
40
1.100
0
CIRCLE
8
Edge.Cuts
10
-18.500
20
-56.000
40
1.100
0
CIRCLE
8
Edge.Cuts
10
18.500
20
-12.000
40
1.100
0
CIRCLE
8
Edge.Cuts
10
18.500
20
-56.000
40
1.100
0
ENDSEC
0
EOF